<svg version="1.1" xmlns="http://www.w3.org/2000/svg" xmlns:xlink="http://www.w3.org/1999/xlink" width="357.94043" height="357.94044" viewBox="0,0,357.94043,357.94044"><g transform="translate(-61.02978,-1.02978)"><g data-paper-data="{&quot;isPaintingLayer&quot;:true}" fill="#ffffff" fill-rule="nonzero" stroke="none" stroke-width="0" stroke-linecap="butt" stroke-linejoin="miter" stroke-miterlimit="10" stroke-dasharray="" stroke-dashoffset="0" style="mix-blend-mode: normal"><path d="M61.02978,179.99999c0,-98.84252 80.1277,-178.97021 178.97022,-178.97021c98.84252,0 178.97021,80.1277 178.97021,178.97022c0,98.84252 -80.12769,178.97022 -178.97021,178.97022c-98.84252,0 -178.97021,-80.1277 -178.97021,-178.97022zM177.9257,295.2559c13.80712,0 25.87976,-9.72663 25.87976,-23.53375c0,-0.40947 1.36605,-17.50434 3.66403,-17.51697c5.68849,-0.03125 -4.6795,54.26865 5.11679,53.27755c20.52487,-2.0765 23.30327,-39.69128 15.81046,-76.00945c-7.99806,-38.76716 -5.22493,-51.30654 1.86978,-52.36308c8.30345,-1.23654 14.34683,7.9164 17.28177,19.52651c3.01526,11.92786 2.85258,26.3334 6.32833,25.91169c4.38207,-0.53168 1.65641,-51.96945 15.23932,-51.97934c4.50727,-0.00328 11.24418,0.06016 11.9657,8.81055c1.42444,17.27528 2.69578,103.48325 20.31674,106.10868c25.0254,3.72865 17.37219,-34.22378 30.46373,-38.42127c10.70362,-3.43186 3.5387,31.30517 10.46765,34.01677c19.70099,7.70986 27.09395,-27.81112 28.57184,-32.95225c3.02318,-10.51671 6.31674,-31.80868 2.23309,-60.7651c-4.83114,-34.25679 -9.24556,-35.57666 -18.65282,-65.10708c-8.20861,-20.42954 -24.76059,-46.7261 -34.22416,-43.28574c-10.53334,3.84978 2.71722,21.4362 8.89366,42.29066c6.5654,22.16772 14.93918,38.34458 24.44579,66.04212c5.54825,20.32465 3.66118,36.73631 -0.67975,38.16813c-12.86507,4.24343 -3.45102,-27.40054 -16.90225,-29.00719c-6.63587,-0.67486 -7.94108,5.52588 -7.7079,12.53635c0.15097,4.53863 1.90303,9.28002 0.04102,13.17622c-2.84722,5.95773 -9.49629,6.71411 -12.29069,1.38983c-6.33822,-12.07649 -10.19435,-42.12869 -11.55828,-79.96963c-0.53719,-14.90364 -6.80484,-42.4333 -9.74415,-47.11557c-6.4461,-10.26852 -15.65886,-14.79584 -20.48287,-12.97478c-8.95487,3.38045 -2.22195,19.51697 3.00297,33.40767c3.79816,10.09762 6.51651,19.14995 3.21047,20.56376c-3.35257,1.43371 -9.16012,-21.57027 -17.18831,-33.3463c-7.89126,-11.57519 -18.16239,-12.33489 -20.08424,-10.49488c-10.45657,10.01128 -0.81598,28.22969 4.12775,39.84622c4.22956,9.93843 0.86364,11.65562 -2.58469,12.1899c-4.12569,0.63924 -4.06144,-11.12262 -8.4989,-19.01478c-4.78167,-8.50433 -7.2756,-11.31739 -11.32074,-18.04239c-12.9963,-19.62127 -22.47725,-29.77459 -32.78326,-24.08138c-6.35726,3.51185 -0.36732,23.45515 2.2914,40.10811c2.6794,16.78245 2.163,31.57245 2.163,31.57245c0,0 -3.58023,-13.25968 -8.43008,-30.55724c-3.77629,-13.46857 -13.26965,-26.70719 -23.26601,-34.77364c-22.16656,-17.88706 -26.97034,-14.36046 -41.50372,-13.15195c-28.82411,2.39683 -20.93403,67.11126 -20.93403,80.91838c0,1.40907 11.17972,25.74497 20.11315,17.57016c6.04699,-5.53349 -4.07619,-43.23394 15.84125,-45.05629c13.79664,-1.26233 27.97203,7.66023 32.66001,27.8236c6.71481,28.88095 5.04795,56.3743 -5.61596,59.14747c-24.50544,6.37267 -29.81776,-22.04369 -42.023,-23.33744c-11.23561,-1.19097 -17.02881,13.03141 -17.4982,21.57139c-0.68489,12.46084 14.10102,38.48753 26.97078,51.52861c19.93704,20.20245 41.80794,25.35471 45.00377,25.35471z"/></g></g></svg>